<?xml version="1.0" standalone="no"?>
<!DOCTYPE svg PUBLIC "-//W3C//DTD SVG 20010904//EN"
 "http://www.w3.org/TR/2001/REC-SVG-20010904/DTD/svg10.dtd">
<svg version="1.0" xmlns="http://www.w3.org/2000/svg"
 width="512.000000pt" height="512.000000pt" viewBox="0 0 512.000000 512.000000"
 preserveAspectRatio="xMidYMid meet">
<metadata>
Created by potrace 1.14, written by Peter Selinger 2001-2017
</metadata>
<g transform="translate(0.000000,512.000000) scale(0.100000,-0.100000)"
fill="#000000" stroke="none">
<path d="M458 4203 c-11 -13 -70 -419 -212 -1455 -109 -790 -196 -1449 -194
-1465 6 -54 26 -53 400 26 188 40 414 91 501 112 87 22 184 40 215 41 69 1 90
-8 477 -195 279 -134 428 -196 521 -217 60 -14 157 -6 324 26 129 25 816 124
859 124 13 0 280 -63 594 -140 313 -77 577 -140 587 -140 9 0 24 8 32 18 10
11 72 324 183 932 92 503 186 1010 210 1125 43 204 85 462 85 517 0 40 -110
174 -152 186 -20 5 -161 5 -353 -1 -176 -5 -394 -10 -485 -11 l-165 -1 -165
66 c-91 37 -237 95 -325 130 -88 34 -222 91 -298 125 -184 84 -254 106 -347
106 -53 0 -214 -27 -555 -92 -264 -50 -516 -100 -559 -111 -128 -33 -185 -28
-314 25 -162 66 -795 286 -824 286 -14 0 -32 -8 -40 -17z m556 -263 l461 -161
630 119 c347 65 631 118 631 118 4 -2 -45 -343 -54 -386 -6 -25 -13 -76 -17
-113 -6 -59 -9 -67 -23 -61 -44 19 -69 16 -89 -10 -24 -30 -33 -31 -71 -12
-25 13 -39 11 -142 -15 -135 -34 -160 -48 -160 -89 0 -35 31 -60 77 -60 41 0
50 -14 21 -34 -27 -19 -89 -21 -106 -4 -7 7 -12 27 -12 45 0 40 -30 74 -59 66
-27 -7 -79 -66 -87 -100 -4 -14 -2 -47 5 -73 14 -56 8 -75 -30 -89 -16 -6 -43
-16 -59 -22 -42 -16 -80 -64 -80 -100 0 -37 -16 -68 -48 -93 -65 -51 -92 -102
-92 -173 0 -51 30 -87 83 -99 20 -4 52 -27 84 -60 28 -30 56 -54 63 -54 6 0
27 16 47 35 42 41 57 43 77 12 21 -32 34 -101 50 -268 16 -165 33 -216 89
-266 36 -32 90 -53 135 -53 27 0 27 2 -9 -145 -11 -44 -31 -136 -45 -205 -40
-199 -106 -442 -118 -437 -22 9 -931 421 -935 424 -2 1 7 63 20 137 l24 135
42 -6 c83 -11 93 36 28 135 l-35 52 19 110 19 109 85 83 c94 91 112 127 97
194 -17 76 -69 111 -121 84 l-21 -12 6 129 c8 160 36 374 51 391 6 7 56 24
110 37 99 25 135 45 135 75 0 24 -30 49 -68 56 -42 8 -41 24 1 24 52 0 78 20
96 75 14 45 19 50 49 53 40 4 49 -15 27 -58 -9 -17 -15 -43 -13 -58 2 -22 9
-28 35 -30 39 -4 148 46 199 90 28 25 34 37 34 72 0 46 -27 99 -61 116 -16 9
-31 9 -63 0 -34 -9 -49 -8 -86 5 -63 22 -108 12 -181 -41 -67 -50 -97 -64
-135 -64 -23 0 -25 3 -20 28 3 15 12 70 21 122 8 52 18 106 21 120 4 16 2 22
-4 15 -9 -8 -62 -239 -62 -266 0 -4 -15 -5 -34 -2 -18 3 -43 0 -54 -6 -17 -9
-29 -7 -62 10 l-42 22 -44 -21 c-75 -37 -94 -25 -51 32 47 63 42 80 -31 92
-23 3 -47 13 -53 20 -9 11 -22 5 -68 -30 -31 -24 -102 -73 -158 -110 -105 -68
-140 -108 -128 -147 10 -30 40 -41 92 -33 l46 7 -6 -74 c-3 -41 -17 -112 -31
-158 -31 -101 -33 -150 -7 -182 18 -23 20 -23 38 -6 32 28 36 21 30 -47 -5
-53 -2 -71 16 -107 18 -37 31 -48 77 -66 90 -36 92 -61 5 -83 -106 -27 -155
-74 -155 -151 0 -55 26 -106 96 -194 69 -86 96 -132 125 -210 26 -70 60 -110
129 -150 50 -30 51 -31 45 -70 -13 -93 -37 -221 -44 -235 -6 -11 -159 -47
-524 -124 -284 -60 -519 -107 -522 -105 -4 5 361 2698 370 2727 3 6 8 12 12
12 3 0 214 -72 467 -160z m2281 -129 c278 -110 509 -201 512 -204 4 -5 -44
-308 -51 -314 -1 -1 -23 9 -49 22 -51 25 -96 36 -241 54 -49 7 -143 30 -208
52 -66 22 -147 45 -181 50 -91 14 -94 16 -138 76 -50 68 -94 89 -146 72 -39
-13 -63 -55 -63 -113 0 -25 -7 -39 -22 -51 -32 -22 -33 -10 -8 130 11 64 25
170 31 234 18 204 18 203 39 196 10 -3 246 -95 525 -204z m565 -221 c14 -7
172 -7 504 1 415 10 488 10 502 -2 28 -23 54 -90 54 -141 0 -25 -97 -575 -215
-1221 -118 -646 -215 -1178 -215 -1181 0 -3 -6 -6 -14 -6 -8 0 -262 60 -563
134 l-549 135 -583 -80 c-321 -44 -585 -79 -586 -77 -2 2 5 35 16 73 20 72 72
289 136 569 23 102 42 165 54 177 10 10 28 37 40 61 39 76 76 124 132 166 86
65 82 102 -18 163 -54 33 -60 39 -60 70 0 31 6 38 68 79 72 47 89 69 107 134
23 80 96 115 120 56 10 -24 10 -50 1 -124 -13 -98 -6 -151 22 -190 22 -30 43
-13 81 62 40 79 81 112 151 119 53 7 60 -3 57 -84 -4 -82 15 -103 91 -103 70
0 86 -18 103 -115 17 -99 39 -144 80 -161 42 -18 109 1 137 38 19 25 19 32 7
135 -15 137 -6 180 55 243 62 64 63 91 5 176 l-40 59 68 66 c37 37 69 62 71
57 2 -6 -2 -35 -8 -66 -6 -32 -13 -73 -16 -92 -11 -92 -45 -271 -70 -370 -7
-30 -16 -73 -19 -95 -10 -76 -35 -202 -56 -291 -12 -49 -35 -156 -51 -239 -17
-82 -43 -203 -60 -267 -16 -64 -29 -123 -28 -130 1 -31 31 75 69 250 51 232
48 222 62 197 16 -28 28 -35 68 -35 42 0 98 -15 161 -42 46 -19 69 -49 69 -88
0 -10 12 -32 26 -49 22 -27 33 -31 73 -31 79 0 230 60 251 100 15 28 4 56 -40
110 -49 59 -53 73 -40 136 9 42 8 59 -2 81 -12 25 -18 28 -58 26 -25 -1 -61
-5 -80 -8 -29 -6 -39 -2 -59 19 -15 16 -35 26 -52 26 -29 0 -188 -79 -266
-132 -24 -16 -43 -25 -43 -20 0 5 7 42 16 81 14 59 19 71 33 66 9 -4 37 -9 63
-12 41 -5 50 -2 72 20 55 55 25 84 -79 75 -36 -3 -55 -1 -55 6 0 11 7 48 54
276 14 69 33 170 42 224 13 76 19 95 25 78 17 -45 78 -23 110 41 45 87 34 224
-22 280 -17 16 -28 37 -27 46 3 11 26 -7 81 -62 87 -87 113 -95 150 -45 18 25
19 30 7 75 -12 39 -30 64 -107 139 -51 51 -93 100 -93 110 0 11 7 57 14 104
17 96 25 162 25 203 1 29 11 33 41 17z m-166 -491 c14 -11 26 -29 26 -40 0
-23 -16 -21 -88 13 -43 20 -45 32 -7 41 36 8 42 7 69 -14z m-2499 -89 c66 -85
122 -110 172 -75 22 15 22 15 18 -42 -2 -32 -7 -113 -10 -181 l-7 -123 -35
-17 c-52 -25 -69 -9 -65 63 4 62 -5 80 -46 90 -37 9 -40 18 -35 89 5 54 1 71
-26 133 -31 70 -40 123 -22 123 6 0 31 -27 56 -60z m115 -867 c-11 -56 -14
-63 -22 -44 -8 24 -6 42 14 94 18 46 21 22 8 -50z"/>
<path d="M2189 3541 c-32 -32 -35 -53 -16 -94 16 -35 50 -35 82 -1 32 34 35
98 6 114 -30 15 -40 13 -72 -19z"/>
<path d="M4174 1560 c-30 -25 -73 -48 -113 -60 -76 -24 -143 -60 -138 -74 13
-38 167 -27 258 19 65 34 93 76 75 118 -6 17 -17 32 -22 34 -6 2 -33 -15 -60
-37z"/>
</g>
</svg>
